# xmcd
#
# Track frame offsets: 
#        187
#        26997
#        52262
#        75590
#        101315
#        125990
#        148335
#
# Disc length: 2286 seconds
#
# Revision: 5
# Processed by: cddbd v1.5.2PL0 Copyright (c) Steve Scherf et al.
# Submitted via: ExactAudioCopy v0.99pb4
#
DISCID=6808ec07
DTITLE=Lee Ritenour - Rio
DYEAR=1979
DGENRE=Jazz
TTITLE0=Rainbow
TTITLE1=San Juan Sunset
TTITLE2=Rio Funk
TTITLE3=It Happens Every Day
TTITLE4=Ipanema Sol
TTITLE5=Simplicidad
TTITLE6=A Little Bit Of This And A Little Bit Of That
EXTD=YEAR: 1979
EXTT0=
EXTT1=
EXTT2=
EXTT3=
EXTT4=
EXTT5=
EXTT6=
PLAYORDER=
